# MagicaVoxel @ Ephtracy

# group
o 

# material
mtllib flecha.mtl
usemtl palette

# normals
vn -1 0 0
vn 1 0 0
vn 0 0 1
vn 0 0 -1
vn 0 -1 0
vn 0 1 0

# texcoords
vt 0.861328 0.5
vt 0.865234 0.5
vt 0.958984 0.5
vt 0.970703 0.5
vt 0.974609 0.5

# verts
v -1 0 0.9
v -1 0 0.8
v -1 0.1 0.9
v -1 0.1 0.8
v -0.9 0 1
v -0.9 0 0.9
v -0.9 0 0.8
v -0.9 0 0.7
v -0.9 0.1 1
v -0.9 0.1 0.9
v -0.9 0.1 0.8
v -0.9 0.1 0.7
v -0.7 0 0.7
v -0.7 0 0.6
v -0.7 0.1 0.7
v -0.7 0.1 0.6
v -0.6 0 0.6
v -0.6 0 0.5
v -0.6 0.1 0.6
v -0.6 0.1 0.5
v -0.5 0 0.5
v -0.5 0 0.4
v -0.5 0.1 0.5
v -0.5 0.1 0.4
v -0.4 0 0.4
v -0.4 0 0.3
v -0.4 0.1 0.4
v -0.4 0.1 0.3
v -0.3 0 0.3
v -0.3 0 0.2
v -0.3 0.1 0.3
v -0.3 0.1 0.2
v -0.2 0 0.2
v -0.2 0 0.0999999
v -0.2 0.1 0.2
v -0.2 0.1 0.0999999
v -0.0999999 0 0.0999999
v -0.0999999 0 -1.19209e-07
v -0.0999999 0.1 0.0999999
v -0.0999999 0.1 -1.19209e-07
v 1.19209e-07 0 -1.19209e-07
v 1.19209e-07 0 -0.1
v 1.19209e-07 0.1 -1.19209e-07
v 1.19209e-07 0.1 -0.1
v 0.1 0 -0.1
v 0.1 0 -0.2
v 0.1 0.1 -0.1
v 0.1 0.1 -0.2
v 0.2 0 -0.2
v 0.2 0 -0.3
v 0.2 0.1 -0.2
v 0.2 0.1 -0.3
v 0.3 0 -0.3
v 0.3 0 -0.4
v 0.3 0 -0.5
v 0.3 0 -0.6
v 0.3 0.1 -0.3
v 0.3 0.1 -0.4
v 0.3 0.1 -0.5
v 0.3 0.1 -0.6
v 0.4 0 -0.4
v 0.4 0 -0.5
v 0.4 0.1 -0.4
v 0.4 0.1 -0.5
v 0.5 0 -0.6
v 0.5 0 -0.7
v 0.5 0.1 -0.6
v 0.5 0.1 -0.7
v -0.8 0 1
v -0.8 0 0.9
v -0.8 0.1 1
v -0.8 0.1 0.9
v -0.7 0 0.9
v -0.7 0 0.8
v -0.7 0.1 0.9
v -0.7 0.1 0.8
v -0.6 0 0.8
v -0.6 0 0.7
v -0.6 0.1 0.8
v -0.6 0.1 0.7
v -0.5 0 0.7
v -0.5 0 0.6
v -0.5 0.1 0.7
v -0.5 0.1 0.6
v -0.4 0 0.6
v -0.4 0 0.5
v -0.4 0.1 0.6
v -0.4 0.1 0.5
v -0.3 0 0.5
v -0.3 0 0.4
v -0.3 0.1 0.5
v -0.3 0.1 0.4
v -0.2 0 0.4
v -0.2 0 0.3
v -0.2 0.1 0.4
v -0.2 0.1 0.3
v -0.0999999 0 0.3
v -0.0999999 0 0.2
v -0.0999999 0.1 0.3
v -0.0999999 0.1 0.2
v 1.19209e-07 0 0.2
v 1.19209e-07 0 0.0999999
v 1.19209e-07 0.1 0.2
v 1.19209e-07 0.1 0.0999999
v 0.1 0 0.0999999
v 0.1 0 -1.19209e-07
v 0.1 0.1 0.0999999
v 0.1 0.1 -1.19209e-07
v 0.2 0 -1.19209e-07
v 0.2 0 -0.1
v 0.2 0.1 -1.19209e-07
v 0.2 0.1 -0.1
v 0.3 0 -0.1
v 0.3 0 -0.2
v 0.3 0.1 -0.1
v 0.3 0.1 -0.2
v 0.4 0 -0.2
v 0.4 0 -0.3
v 0.4 0.1 -0.2
v 0.4 0.1 -0.3
v 0.6 0 -0.3
v 0.6 0 -0.4
v 0.6 0 -0.5
v 0.6 0.1 -0.3
v 0.6 0.1 -0.4
v 0.6 0.1 -0.5
v 0.7 0 -0.5
v 0.7 0 -0.6
v 0.7 0 -0.7
v 0.7 0.1 -0.5
v 0.7 0.1 -0.6
v 0.7 0.1 -0.7
v -0.9 0 1
v -0.9 0.1 1
v -0.8 0 1
v -0.8 0.1 1
v -1 0 0.9
v -1 0.1 0.9
v -0.9 0 0.9
v -0.9 0.1 0.9
v -0.8 0 0.9
v -0.8 0.1 0.9
v -0.7 0 0.9
v -0.7 0.1 0.9
v -0.7 0 0.8
v -0.7 0.1 0.8
v -0.6 0 0.8
v -0.6 0.1 0.8
v -0.6 0 0.7
v -0.6 0.1 0.7
v -0.5 0 0.7
v -0.5 0.1 0.7
v -0.5 0 0.6
v -0.5 0.1 0.6
v -0.4 0 0.6
v -0.4 0.1 0.6
v -0.4 0 0.5
v -0.4 0.1 0.5
v -0.3 0 0.5
v -0.3 0.1 0.5
v -0.3 0 0.4
v -0.3 0.1 0.4
v -0.2 0 0.4
v -0.2 0.1 0.4
v -0.2 0 0.3
v -0.2 0.1 0.3
v -0.0999999 0 0.3
v -0.0999999 0.1 0.3
v -0.0999999 0 0.2
v -0.0999999 0.1 0.2
v 1.19209e-07 0 0.2
v 1.19209e-07 0.1 0.2
v 1.19209e-07 0 0.0999999
v 1.19209e-07 0.1 0.0999999
v 0.1 0 0.0999999
v 0.1 0.1 0.0999999
v 0.1 0 -1.19209e-07
v 0.1 0.1 -1.19209e-07
v 0.2 0 -1.19209e-07
v 0.2 0.1 -1.19209e-07
v 0.2 0 -0.1
v 0.2 0.1 -0.1
v 0.3 0 -0.1
v 0.3 0.1 -0.1
v 0.3 0 -0.2
v 0.3 0.1 -0.2
v 0.4 0 -0.2
v 0.4 0.1 -0.2
v 0.4 0 -0.3
v 0.4 0.1 -0.3
v 0.5 0 -0.3
v 0.5 0.1 -0.3
v 0.6 0 -0.3
v 0.6 0.1 -0.3
v 0.3 0 -0.5
v 0.3 0.1 -0.5
v 0.4 0 -0.5
v 0.4 0.1 -0.5
v 0.6 0 -0.5
v 0.6 0.1 -0.5
v 0.7 0 -0.5
v 0.7 0.1 -0.5
v -1 0 0.8
v -1 0.1 0.8
v -0.9 0 0.8
v -0.9 0.1 0.8
v -0.9 0 0.7
v -0.9 0.1 0.7
v -0.7 0 0.7
v -0.7 0.1 0.7
v -0.7 0 0.6
v -0.7 0.1 0.6
v -0.6 0 0.6
v -0.6 0.1 0.6
v -0.6 0 0.5
v -0.6 0.1 0.5
v -0.5 0 0.5
v -0.5 0.1 0.5
v -0.5 0 0.4
v -0.5 0.1 0.4
v -0.4 0 0.4
v -0.4 0.1 0.4
v -0.4 0 0.3
v -0.4 0.1 0.3
v -0.3 0 0.3
v -0.3 0.1 0.3
v -0.3 0 0.2
v -0.3 0.1 0.2
v -0.2 0 0.2
v -0.2 0.1 0.2
v -0.2 0 0.0999999
v -0.2 0.1 0.0999999
v -0.0999999 0 0.0999999
v -0.0999999 0.1 0.0999999
v -0.0999999 0 -1.19209e-07
v -0.0999999 0.1 -1.19209e-07
v 1.19209e-07 0 -1.19209e-07
v 1.19209e-07 0.1 -1.19209e-07
v 1.19209e-07 0 -0.1
v 1.19209e-07 0.1 -0.1
v 0.1 0 -0.1
v 0.1 0.1 -0.1
v 0.1 0 -0.2
v 0.1 0.1 -0.2
v 0.2 0 -0.2
v 0.2 0.1 -0.2
v 0.2 0 -0.3
v 0.2 0.1 -0.3
v 0.3 0 -0.3
v 0.3 0.1 -0.3
v 0.3 0 -0.4
v 0.3 0.1 -0.4
v 0.4 0 -0.4
v 0.4 0.1 -0.4
v 0.3 0 -0.6
v 0.3 0.1 -0.6
v 0.4 0 -0.6
v 0.4 0.1 -0.6
v 0.5 0 -0.6
v 0.5 0.1 -0.6
v 0.5 0 -0.7
v 0.5 0.1 -0.7
v 0.6 0 -0.7
v 0.6 0.1 -0.7
v 0.7 0 -0.7
v 0.7 0.1 -0.7
v -0.9 0 1
v -0.8 0 1
v -1 0 0.9
v -0.9 0 0.9
v -0.8 0 0.9
v -0.7 0 0.9
v -1 0 0.8
v -0.9 0 0.8
v -0.7 0 0.8
v -0.6 0 0.8
v -0.9 0 0.7
v -0.7 0 0.7
v -0.6 0 0.7
v -0.5 0 0.7
v -0.7 0 0.6
v -0.6 0 0.6
v -0.5 0 0.6
v -0.4 0 0.6
v -0.6 0 0.5
v -0.5 0 0.5
v -0.4 0 0.5
v -0.3 0 0.5
v -0.5 0 0.4
v -0.4 0 0.4
v -0.3 0 0.4
v -0.2 0 0.4
v -0.4 0 0.3
v -0.3 0 0.3
v -0.2 0 0.3
v -0.0999999 0 0.3
v -0.3 0 0.2
v -0.2 0 0.2
v -0.0999999 0 0.2
v 1.19209e-07 0 0.2
v -0.2 0 0.0999999
v -0.0999999 0 0.0999999
v 1.19209e-07 0 0.0999999
v 0.1 0 0.0999999
v -0.0999999 0 -1.19209e-07
v 1.19209e-07 0 -1.19209e-07
v 0.1 0 -1.19209e-07
v 0.2 0 -1.19209e-07
v 1.19209e-07 0 -0.1
v 0.1 0 -0.1
v 0.2 0 -0.1
v 0.3 0 -0.1
v 0.1 0 -0.2
v 0.2 0 -0.2
v 0.3 0 -0.2
v 0.4 0 -0.2
v 0.2 0 -0.3
v 0.3 0 -0.3
v 0.4 0 -0.3
v 0.5 0 -0.3
v 0.6 0 -0.3
v 0.3 0 -0.4
v 0.4 0 -0.4
v 0.5 0 -0.4
v 0.6 0 -0.4
v 0.3 0 -0.5
v 0.4 0 -0.5
v 0.5 0 -0.5
v 0.6 0 -0.5
v 0.7 0 -0.5
v 0.3 0 -0.6
v 0.4 0 -0.6
v 0.5 0 -0.6
v 0.6 0 -0.6
v 0.7 0 -0.6
v 0.5 0 -0.7
v 0.6 0 -0.7
v 0.7 0 -0.7
v -0.9 0.1 1
v -0.8 0.1 1
v -1 0.1 0.9
v -0.9 0.1 0.9
v -0.8 0.1 0.9
v -0.7 0.1 0.9
v -1 0.1 0.8
v -0.9 0.1 0.8
v -0.7 0.1 0.8
v -0.6 0.1 0.8
v -0.9 0.1 0.7
v -0.7 0.1 0.7
v -0.6 0.1 0.7
v -0.5 0.1 0.7
v -0.7 0.1 0.6
v -0.6 0.1 0.6
v -0.5 0.1 0.6
v -0.4 0.1 0.6
v -0.6 0.1 0.5
v -0.5 0.1 0.5
v -0.4 0.1 0.5
v -0.3 0.1 0.5
v -0.5 0.1 0.4
v -0.4 0.1 0.4
v -0.3 0.1 0.4
v -0.2 0.1 0.4
v -0.4 0.1 0.3
v -0.3 0.1 0.3
v -0.2 0.1 0.3
v -0.0999999 0.1 0.3
v -0.3 0.1 0.2
v -0.2 0.1 0.2
v -0.0999999 0.1 0.2
v 1.19209e-07 0.1 0.2
v -0.2 0.1 0.0999999
v -0.0999999 0.1 0.0999999
v 1.19209e-07 0.1 0.0999999
v 0.1 0.1 0.0999999
v -0.0999999 0.1 -1.19209e-07
v 1.19209e-07 0.1 -1.19209e-07
v 0.1 0.1 -1.19209e-07
v 0.2 0.1 -1.19209e-07
v 1.19209e-07 0.1 -0.1
v 0.1 0.1 -0.1
v 0.2 0.1 -0.1
v 0.3 0.1 -0.1
v 0.1 0.1 -0.2
v 0.2 0.1 -0.2
v 0.3 0.1 -0.2
v 0.4 0.1 -0.2
v 0.2 0.1 -0.3
v 0.3 0.1 -0.3
v 0.4 0.1 -0.3
v 0.5 0.1 -0.3
v 0.6 0.1 -0.3
v 0.3 0.1 -0.4
v 0.4 0.1 -0.4
v 0.5 0.1 -0.4
v 0.6 0.1 -0.4
v 0.3 0.1 -0.5
v 0.4 0.1 -0.5
v 0.5 0.1 -0.5
v 0.6 0.1 -0.5
v 0.7 0.1 -0.5
v 0.3 0.1 -0.6
v 0.4 0.1 -0.6
v 0.5 0.1 -0.6
v 0.6 0.1 -0.6
v 0.7 0.1 -0.6
v 0.5 0.1 -0.7
v 0.6 0.1 -0.7
v 0.7 0.1 -0.7

# faces
f 3/5/1 2/5/1 1/5/1
f 4/5/1 2/5/1 3/5/1
f 9/5/1 6/5/1 5/5/1
f 10/5/1 6/5/1 9/5/1
f 11/5/1 8/5/1 7/5/1
f 12/5/1 8/5/1 11/5/1
f 15/1/1 14/1/1 13/1/1
f 16/1/1 14/1/1 15/1/1
f 19/1/1 18/1/1 17/1/1
f 20/1/1 18/1/1 19/1/1
f 23/1/1 22/1/1 21/1/1
f 24/1/1 22/1/1 23/1/1
f 27/1/1 26/1/1 25/1/1
f 28/1/1 26/1/1 27/1/1
f 31/1/1 30/1/1 29/1/1
f 32/1/1 30/1/1 31/1/1
f 35/1/1 34/1/1 33/1/1
f 36/1/1 34/1/1 35/1/1
f 39/1/1 38/1/1 37/1/1
f 40/1/1 38/1/1 39/1/1
f 43/1/1 42/1/1 41/1/1
f 44/1/1 42/1/1 43/1/1
f 47/1/1 46/1/1 45/1/1
f 48/1/1 46/1/1 47/1/1
f 51/1/1 50/1/1 49/1/1
f 52/1/1 50/1/1 51/1/1
f 57/1/1 54/1/1 53/1/1
f 58/1/1 54/1/1 57/1/1
f 59/5/1 56/5/1 55/5/1
f 60/5/1 56/5/1 59/5/1
f 63/1/1 62/1/1 61/1/1
f 64/1/1 62/1/1 63/1/1
f 67/5/1 66/5/1 65/5/1
f 68/5/1 66/5/1 67/5/1
f 69/5/2 70/5/2 71/5/2
f 71/5/2 70/5/2 72/5/2
f 73/5/2 74/5/2 75/5/2
f 75/5/2 74/5/2 76/5/2
f 77/2/2 78/2/2 79/2/2
f 79/2/2 78/2/2 80/2/2
f 81/2/2 82/2/2 83/2/2
f 83/2/2 82/2/2 84/2/2
f 85/2/2 86/2/2 87/2/2
f 87/2/2 86/2/2 88/2/2
f 89/2/2 90/2/2 91/2/2
f 91/2/2 90/2/2 92/2/2
f 93/2/2 94/2/2 95/2/2
f 95/2/2 94/2/2 96/2/2
f 97/2/2 98/2/2 99/2/2
f 99/2/2 98/2/2 100/2/2
f 101/2/2 102/2/2 103/2/2
f 103/2/2 102/2/2 104/2/2
f 105/2/2 106/2/2 107/2/2
f 107/2/2 106/2/2 108/2/2
f 109/2/2 110/2/2 111/2/2
f 111/2/2 110/2/2 112/2/2
f 113/2/2 114/2/2 115/2/2
f 115/2/2 114/2/2 116/2/2
f 117/2/2 118/2/2 119/2/2
f 119/2/2 118/2/2 120/2/2
f 121/5/2 122/5/2 124/5/2
f 122/4/2 123/4/2 125/4/2
f 124/5/2 122/5/2 125/5/2
f 125/4/2 123/4/2 126/4/2
f 127/5/2 128/5/2 130/5/2
f 128/3/2 129/3/2 131/3/2
f 130/5/2 128/5/2 131/5/2
f 131/3/2 129/3/2 132/3/2
f 135/5/3 134/5/3 133/5/3
f 136/5/3 134/5/3 135/5/3
f 139/5/3 138/5/3 137/5/3
f 140/5/3 138/5/3 139/5/3
f 143/5/3 142/5/3 141/5/3
f 144/5/3 142/5/3 143/5/3
f 147/2/3 146/2/3 145/2/3
f 148/2/3 146/2/3 147/2/3
f 151/2/3 150/2/3 149/2/3
f 152/2/3 150/2/3 151/2/3
f 155/2/3 154/2/3 153/2/3
f 156/2/3 154/2/3 155/2/3
f 159/2/3 158/2/3 157/2/3
f 160/2/3 158/2/3 159/2/3
f 163/2/3 162/2/3 161/2/3
f 164/2/3 162/2/3 163/2/3
f 167/2/3 166/2/3 165/2/3
f 168/2/3 166/2/3 167/2/3
f 171/2/3 170/2/3 169/2/3
f 172/2/3 170/2/3 171/2/3
f 175/2/3 174/2/3 173/2/3
f 176/2/3 174/2/3 175/2/3
f 179/2/3 178/2/3 177/2/3
f 180/2/3 178/2/3 179/2/3
f 183/2/3 182/2/3 181/2/3
f 184/2/3 182/2/3 183/2/3
f 187/2/3 186/2/3 185/2/3
f 188/2/3 186/2/3 187/2/3
f 191/2/3 190/2/3 189/2/3
f 192/2/3 190/2/3 191/2/3
f 193/5/3 192/5/3 191/5/3
f 194/5/3 192/5/3 193/5/3
f 197/5/3 196/5/3 195/5/3
f 198/5/3 196/5/3 197/5/3
f 201/5/3 200/5/3 199/5/3
f 202/5/3 200/5/3 201/5/3
f 203/5/4 204/5/4 205/5/4
f 205/5/4 204/5/4 206/5/4
f 207/5/4 208/5/4 209/5/4
f 209/5/4 208/5/4 210/5/4
f 211/1/4 212/1/4 213/1/4
f 213/1/4 212/1/4 214/1/4
f 215/1/4 216/1/4 217/1/4
f 217/1/4 216/1/4 218/1/4
f 219/1/4 220/1/4 221/1/4
f 221/1/4 220/1/4 222/1/4
f 223/1/4 224/1/4 225/1/4
f 225/1/4 224/1/4 226/1/4
f 227/1/4 228/1/4 229/1/4
f 229/1/4 228/1/4 230/1/4
f 231/1/4 232/1/4 233/1/4
f 233/1/4 232/1/4 234/1/4
f 235/1/4 236/1/4 237/1/4
f 237/1/4 236/1/4 238/1/4
f 239/1/4 240/1/4 241/1/4
f 241/1/4 240/1/4 242/1/4
f 243/1/4 244/1/4 245/1/4
f 245/1/4 244/1/4 246/1/4
f 247/1/4 248/1/4 249/1/4
f 249/1/4 248/1/4 250/1/4
f 251/1/4 252/1/4 253/1/4
f 253/1/4 252/1/4 254/1/4
f 255/5/4 256/5/4 257/5/4
f 257/5/4 256/5/4 258/5/4
f 257/4/4 258/4/4 259/4/4
f 259/4/4 258/4/4 260/4/4
f 261/5/4 262/5/4 263/5/4
f 263/5/4 262/5/4 264/5/4
f 263/3/4 264/3/4 265/3/4
f 265/3/4 264/3/4 266/3/4
f 270/5/5 268/5/5 267/5/5
f 271/5/5 268/5/5 270/5/5
f 273/5/5 270/5/5 269/5/5
f 273/5/5 272/5/5 271/5/5
f 273/5/5 271/5/5 270/5/5
f 274/5/5 272/5/5 273/5/5
f 275/5/5 272/5/5 274/5/5
f 277/5/5 275/5/5 274/5/5
f 278/2/5 276/2/5 275/2/5
f 278/5/5 275/5/5 277/5/5
f 279/2/5 276/2/5 278/2/5
f 281/1/5 279/1/5 278/1/5
f 282/2/5 280/2/5 279/2/5
f 282/1/5 279/1/5 281/1/5
f 283/2/5 280/2/5 282/2/5
f 285/1/5 283/1/5 282/1/5
f 286/2/5 284/2/5 283/2/5
f 286/1/5 283/1/5 285/1/5
f 287/2/5 284/2/5 286/2/5
f 289/1/5 287/1/5 286/1/5
f 290/2/5 288/2/5 287/2/5
f 290/1/5 287/1/5 289/1/5
f 291/2/5 288/2/5 290/2/5
f 293/1/5 291/1/5 290/1/5
f 294/2/5 292/2/5 291/2/5
f 294/1/5 291/1/5 293/1/5
f 295/2/5 292/2/5 294/2/5
f 297/1/5 295/1/5 294/1/5
f 298/2/5 296/2/5 295/2/5
f 298/1/5 295/1/5 297/1/5
f 299/2/5 296/2/5 298/2/5
f 301/1/5 299/1/5 298/1/5
f 302/2/5 300/2/5 299/2/5
f 302/1/5 299/1/5 301/1/5
f 303/2/5 300/2/5 302/2/5
f 305/1/5 303/1/5 302/1/5
f 306/2/5 304/2/5 303/2/5
f 306/1/5 303/1/5 305/1/5
f 307/2/5 304/2/5 306/2/5
f 309/1/5 307/1/5 306/1/5
f 310/2/5 308/2/5 307/2/5
f 310/1/5 307/1/5 309/1/5
f 311/2/5 308/2/5 310/2/5
f 313/1/5 311/1/5 310/1/5
f 314/2/5 312/2/5 311/2/5
f 314/1/5 311/1/5 313/1/5
f 315/2/5 312/2/5 314/2/5
f 317/1/5 315/1/5 314/1/5
f 318/2/5 316/2/5 315/2/5
f 318/1/5 315/1/5 317/1/5
f 319/2/5 316/2/5 318/2/5
f 322/1/5 319/1/5 318/1/5
f 323/2/5 320/2/5 319/2/5
f 323/1/5 319/1/5 322/1/5
f 324/5/5 321/5/5 320/5/5
f 324/2/5 320/2/5 323/2/5
f 325/5/5 321/5/5 324/5/5
f 327/1/5 324/1/5 323/1/5
f 328/4/5 325/4/5 324/4/5
f 328/1/5 324/1/5 327/1/5
f 329/4/5 325/4/5 328/4/5
f 331/5/5 327/5/5 326/5/5
f 332/4/5 329/4/5 328/4/5
f 332/5/5 327/5/5 331/5/5
f 332/4/5 328/4/5 327/4/5
f 333/4/5 329/4/5 332/4/5
f 334/5/5 330/5/5 329/5/5
f 334/4/5 329/4/5 333/4/5
f 335/5/5 330/5/5 334/5/5
f 336/5/5 334/5/5 333/5/5
f 337/3/5 335/3/5 334/3/5
f 337/5/5 334/5/5 336/5/5
f 338/3/5 335/3/5 337/3/5
f 339/5/6 340/5/6 342/5/6
f 342/5/6 340/5/6 343/5/6
f 341/5/6 342/5/6 345/5/6
f 343/5/6 344/5/6 345/5/6
f 342/5/6 343/5/6 345/5/6
f 345/5/6 344/5/6 346/5/6
f 346/5/6 344/5/6 347/5/6
f 346/5/6 347/5/6 349/5/6
f 347/2/6 348/2/6 350/2/6
f 349/5/6 347/5/6 350/5/6
f 350/2/6 348/2/6 351/2/6
f 350/1/6 351/1/6 353/1/6
f 351/2/6 352/2/6 354/2/6
f 353/1/6 351/1/6 354/1/6
f 354/2/6 352/2/6 355/2/6
f 354/1/6 355/1/6 357/1/6
f 355/2/6 356/2/6 358/2/6
f 357/1/6 355/1/6 358/1/6
f 358/2/6 356/2/6 359/2/6
f 358/1/6 359/1/6 361/1/6
f 359/2/6 360/2/6 362/2/6
f 361/1/6 359/1/6 362/1/6
f 362/2/6 360/2/6 363/2/6
f 362/1/6 363/1/6 365/1/6
f 363/2/6 364/2/6 366/2/6
f 365/1/6 363/1/6 366/1/6
f 366/2/6 364/2/6 367/2/6
f 366/1/6 367/1/6 369/1/6
f 367/2/6 368/2/6 370/2/6
f 369/1/6 367/1/6 370/1/6
f 370/2/6 368/2/6 371/2/6
f 370/1/6 371/1/6 373/1/6
f 371/2/6 372/2/6 374/2/6
f 373/1/6 371/1/6 374/1/6
f 374/2/6 372/2/6 375/2/6
f 374/1/6 375/1/6 377/1/6
f 375/2/6 376/2/6 378/2/6
f 377/1/6 375/1/6 378/1/6
f 378/2/6 376/2/6 379/2/6
f 378/1/6 379/1/6 381/1/6
f 379/2/6 380/2/6 382/2/6
f 381/1/6 379/1/6 382/1/6
f 382/2/6 380/2/6 383/2/6
f 382/1/6 383/1/6 385/1/6
f 383/2/6 384/2/6 386/2/6
f 385/1/6 383/1/6 386/1/6
f 386/2/6 384/2/6 387/2/6
f 386/1/6 387/1/6 389/1/6
f 387/2/6 388/2/6 390/2/6
f 389/1/6 387/1/6 390/1/6
f 390/2/6 388/2/6 391/2/6
f 390/1/6 391/1/6 394/1/6
f 391/2/6 392/2/6 395/2/6
f 394/1/6 391/1/6 395/1/6
f 392/5/6 393/5/6 396/5/6
f 395/2/6 392/2/6 396/2/6
f 396/5/6 393/5/6 397/5/6
f 395/1/6 396/1/6 399/1/6
f 396/4/6 397/4/6 400/4/6
f 399/1/6 396/1/6 400/1/6
f 400/4/6 397/4/6 401/4/6
f 398/5/6 399/5/6 403/5/6
f 400/4/6 401/4/6 404/4/6
f 403/5/6 399/5/6 404/5/6
f 399/4/6 400/4/6 404/4/6
f 404/4/6 401/4/6 405/4/6
f 401/5/6 402/5/6 406/5/6
f 405/4/6 401/4/6 406/4/6
f 406/5/6 402/5/6 407/5/6
f 405/5/6 406/5/6 408/5/6
f 406/3/6 407/3/6 409/3/6
f 408/5/6 406/5/6 409/5/6
f 409/3/6 407/3/6 410/3/6
