# Blender v3.0.1 OBJ File: ''
# www.blender.org
mtllib LetreroMadera.mtl
o LetreroMadera
v -0.550000 0.308334 0.049999
v -0.550000 -0.291666 -0.050001
v -0.550000 -0.291666 0.049999
v -0.550000 0.308334 -0.050001
v -0.050000 -0.291666 0.049999
v -0.050000 -0.591666 -0.050001
v -0.050000 -0.591666 0.049999
v -0.050000 -0.291666 -0.050001
v -0.050000 0.408334 0.049999
v -0.050000 0.308334 -0.050001
v -0.050000 0.308334 0.049999
v -0.050000 0.408334 -0.050001
v 0.050000 -0.591666 0.049999
v 0.050000 -0.591666 -0.050001
v 0.050000 -0.291666 0.049999
v 0.050000 -0.291666 -0.050001
v 0.050000 0.308334 0.049999
v 0.050000 0.308334 -0.050001
v 0.050000 0.408334 0.049999
v 0.050000 0.408334 -0.050001
v 0.550000 -0.291666 0.049999
v 0.550000 -0.291666 -0.050001
v 0.550000 0.308334 0.049999
v 0.550000 0.308334 -0.050001
v -0.450000 0.008334 0.049999
v -0.550000 0.308334 0.049999
v -0.550000 -0.291666 0.049999
v -0.450000 0.208334 0.049999
v -0.350000 -0.191666 0.049999
v -0.350000 -0.091666 0.049999
v -0.350000 0.108334 0.049999
v -0.350000 0.208334 0.049999
v -0.250000 0.008334 0.049999
v -0.250000 0.108334 0.049999
v -0.250000 0.208334 0.049999
v -0.150000 -0.191666 0.049999
v -0.150000 -0.091666 0.049999
v -0.150000 0.008334 0.049999
v -0.150000 0.108334 0.049999
v -0.150000 0.208334 0.049999
v -0.050000 -0.291666 0.049999
v -0.050000 -0.191666 0.049999
v -0.050000 -0.091666 0.049999
v -0.050000 0.008334 0.049999
v -0.050000 0.108334 0.049999
v -0.050000 0.308334 0.049999
v 0.050000 -0.591666 0.049999
v -0.050000 -0.591666 0.049999
v 0.050000 -0.291666 0.049999
v 0.050000 -0.191666 0.049999
v 0.050000 -0.091666 0.049999
v 0.050000 0.008334 0.049999
v 0.050000 0.108334 0.049999
v -0.050000 0.408334 0.049999
v 0.050000 0.308334 0.049999
v 0.050000 0.408334 0.049999
v 0.150000 -0.191666 0.049999
v 0.150000 -0.091666 0.049999
v 0.150000 0.008334 0.049999
v 0.150000 0.108334 0.049999
v 0.150000 0.208334 0.049999
v 0.250000 0.008334 0.049999
v 0.250000 0.108334 0.049999
v 0.250000 0.208334 0.049999
v 0.350000 -0.191666 0.049999
v 0.350000 -0.091666 0.049999
v 0.350000 0.108334 0.049999
v 0.350000 0.208334 0.049999
v 0.450000 0.008334 0.049999
v 0.450000 0.208334 0.049999
v 0.550000 -0.291666 0.049999
v 0.550000 0.308334 0.049999
v -0.550000 -0.291666 -0.050001
v -0.550000 0.308334 -0.050001
v -0.450000 0.008334 -0.050001
v -0.450000 0.208334 -0.050001
v -0.350000 -0.191666 -0.050001
v -0.350000 -0.091666 -0.050001
v -0.350000 0.108334 -0.050001
v -0.350000 0.208334 -0.050001
v -0.250000 0.008334 -0.050001
v -0.250000 0.108334 -0.050001
v -0.250000 0.208334 -0.050001
v -0.150000 -0.191666 -0.050001
v -0.150000 -0.091666 -0.050001
v -0.150000 0.008334 -0.050001
v -0.150000 0.108334 -0.050001
v -0.150000 0.208334 -0.050001
v -0.050000 -0.291666 -0.050001
v -0.050000 -0.191666 -0.050001
v -0.050000 -0.091666 -0.050001
v -0.050000 0.008334 -0.050001
v -0.050000 0.108334 -0.050001
v -0.050000 0.308334 -0.050001
v -0.050000 -0.591666 -0.050001
v 0.050000 -0.591666 -0.050001
v 0.050000 -0.291666 -0.050001
v 0.050000 -0.191666 -0.050001
v 0.050000 -0.091666 -0.050001
v 0.050000 0.008334 -0.050001
v -0.050000 0.408334 -0.050001
v 0.050000 0.108334 -0.050001
v 0.050000 0.308334 -0.050001
v 0.050000 0.408334 -0.050001
v 0.150000 -0.191666 -0.050001
v 0.150000 -0.091666 -0.050001
v 0.150000 0.008334 -0.050001
v 0.150000 0.108334 -0.050001
v 0.150000 0.208334 -0.050001
v 0.250000 0.008334 -0.050001
v 0.250000 0.108334 -0.050001
v 0.250000 0.208334 -0.050001
v 0.350000 -0.191666 -0.050001
v 0.350000 -0.091666 -0.050001
v 0.350000 0.108334 -0.050001
v 0.350000 0.208334 -0.050001
v 0.450000 0.008334 -0.050001
v 0.450000 0.208334 -0.050001
v 0.550000 -0.291666 -0.050001
v 0.550000 0.308334 -0.050001
v -0.050000 -0.591666 -0.050001
v 0.050000 -0.591666 0.049999
v -0.050000 -0.591666 0.049999
v 0.050000 -0.591666 -0.050001
v -0.550000 -0.291666 -0.050001
v -0.050000 -0.291666 0.049999
v -0.550000 -0.291666 0.049999
v -0.050000 -0.291666 -0.050001
v 0.050000 -0.291666 -0.050001
v 0.550000 -0.291666 0.049999
v 0.050000 -0.291666 0.049999
v 0.550000 -0.291666 -0.050001
v -0.550000 0.308334 0.049999
v -0.050000 0.308334 0.049999
v -0.550000 0.308334 -0.050001
v -0.050000 0.308334 -0.050001
v 0.050000 0.308334 0.049999
v 0.550000 0.308334 0.049999
v 0.050000 0.308334 -0.050001
v 0.550000 0.308334 -0.050001
v -0.050000 0.408334 0.049999
v 0.050000 0.408334 0.049999
v -0.050000 0.408334 -0.050001
v 0.050000 0.408334 -0.050001
vt 0.345703 0.500000
vt 0.345703 0.500000
vt 0.345703 0.500000
vt 0.345703 0.500000
vt 0.345703 0.500000
vt 0.345703 0.500000
vt 0.345703 0.500000
vt 0.345703 0.500000
vt 0.345703 0.500000
vt 0.345703 0.500000
vt 0.345703 0.500000
vt 0.345703 0.500000
vt 0.345703 0.500000
vt 0.345703 0.500000
vt 0.345703 0.500000
vt 0.345703 0.500000
vt 0.345703 0.500000
vt 0.345703 0.500000
vt 0.345703 0.500000
vt 0.345703 0.500000
vt 0.345703 0.500000
vt 0.345703 0.500000
vt 0.345703 0.500000
vt 0.345703 0.500000
vt 0.345703 0.500000
vt 0.345703 0.500000
vt 0.345703 0.500000
vt 0.345703 0.500000
vt 0.345703 0.500000
vt 0.345703 0.500000
vt 0.322266 0.500000
vt 0.322266 0.500000
vt 0.322266 0.500000
vt 0.345703 0.500000
vt 0.322266 0.500000
vt 0.322266 0.500000
vt 0.345703 0.500000
vt 0.345703 0.500000
vt 0.345703 0.500000
vt 0.322266 0.500000
vt 0.345703 0.500000
vt 0.345703 0.500000
vt 0.287109 0.500000
vt 0.287109 0.500000
vt 0.287109 0.500000
vt 0.345703 0.500000
vt 0.287109 0.500000
vt 0.345703 0.500000
vt 0.322266 0.500000
vt 0.322266 0.500000
vt 0.345703 0.500000
vt 0.345703 0.500000
vt 0.322266 0.500000
vt 0.345703 0.500000
vt 0.345703 0.500000
vt 0.345703 0.500000
vt 0.322266 0.500000
vt 0.322266 0.500000
vt 0.345703 0.500000
vt 0.345703 0.500000
vt 0.322266 0.500000
vt 0.345703 0.500000
vt 0.345703 0.500000
vt 0.345703 0.500000
vt 0.345703 0.500000
vt 0.287109 0.500000
vt 0.287109 0.500000
vt 0.287109 0.500000
vt 0.345703 0.500000
vt 0.345703 0.500000
vt 0.287109 0.500000
vt 0.287109 0.500000
vt 0.287109 0.500000
vt 0.287109 0.500000
vt 0.345703 0.500000
vt 0.345703 0.500000
vt 0.345703 0.500000
vt 0.287109 0.500000
vt 0.345703 0.500000
vt 0.345703 0.500000
vt 0.345703 0.500000
vt 0.345703 0.500000
vt 0.322266 0.500000
vt 0.322266 0.500000
vt 0.322266 0.500000
vt 0.345703 0.500000
vt 0.345703 0.500000
vt 0.322266 0.500000
vt 0.345703 0.500000
vt 0.345703 0.500000
vt 0.322266 0.500000
vt 0.322266 0.500000
vt 0.345703 0.500000
vt 0.345703 0.500000
vt 0.322266 0.500000
vt 0.287109 0.500000
vt 0.287109 0.500000
vt 0.287109 0.500000
vt 0.345703 0.500000
vt 0.345703 0.500000
vt 0.287109 0.500000
vt 0.322266 0.500000
vt 0.322266 0.500000
vt 0.345703 0.500000
vt 0.345703 0.500000
vt 0.345703 0.500000
vt 0.322266 0.500000
vt 0.322266 0.500000
vt 0.345703 0.500000
vt 0.322266 0.500000
vt 0.345703 0.500000
vt 0.345703 0.500000
vt 0.345703 0.500000
vt 0.345703 0.500000
vt 0.345703 0.500000
vt 0.345703 0.500000
vt 0.345703 0.500000
vt 0.345703 0.500000
vt 0.322266 0.500000
vt 0.322266 0.500000
vt 0.322266 0.500000
vt 0.345703 0.500000
vt 0.322266 0.500000
vt 0.322266 0.500000
vt 0.345703 0.500000
vt 0.345703 0.500000
vt 0.345703 0.500000
vt 0.322266 0.500000
vt 0.345703 0.500000
vt 0.345703 0.500000
vt 0.287109 0.500000
vt 0.287109 0.500000
vt 0.287109 0.500000
vt 0.345703 0.500000
vt 0.287109 0.500000
vt 0.345703 0.500000
vt 0.322266 0.500000
vt 0.322266 0.500000
vt 0.345703 0.500000
vt 0.345703 0.500000
vt 0.322266 0.500000
vt 0.345703 0.500000
vt 0.345703 0.500000
vt 0.345703 0.500000
vt 0.322266 0.500000
vt 0.322266 0.500000
vt 0.345703 0.500000
vt 0.345703 0.500000
vt 0.322266 0.500000
vt 0.345703 0.500000
vt 0.345703 0.500000
vt 0.345703 0.500000
vt 0.345703 0.500000
vt 0.287109 0.500000
vt 0.287109 0.500000
vt 0.287109 0.500000
vt 0.345703 0.500000
vt 0.345703 0.500000
vt 0.287109 0.500000
vt 0.287109 0.500000
vt 0.287109 0.500000
vt 0.287109 0.500000
vt 0.345703 0.500000
vt 0.345703 0.500000
vt 0.345703 0.500000
vt 0.287109 0.500000
vt 0.345703 0.500000
vt 0.345703 0.500000
vt 0.345703 0.500000
vt 0.345703 0.500000
vt 0.322266 0.500000
vt 0.322266 0.500000
vt 0.322266 0.500000
vt 0.345703 0.500000
vt 0.345703 0.500000
vt 0.322266 0.500000
vt 0.345703 0.500000
vt 0.345703 0.500000
vt 0.322266 0.500000
vt 0.322266 0.500000
vt 0.345703 0.500000
vt 0.345703 0.500000
vt 0.322266 0.500000
vt 0.287109 0.500000
vt 0.287109 0.500000
vt 0.287109 0.500000
vt 0.345703 0.500000
vt 0.345703 0.500000
vt 0.287109 0.500000
vt 0.322266 0.500000
vt 0.322266 0.500000
vt 0.345703 0.500000
vt 0.345703 0.500000
vt 0.345703 0.500000
vt 0.322266 0.500000
vt 0.322266 0.500000
vt 0.345703 0.500000
vt 0.322266 0.500000
vt 0.345703 0.500000
vt 0.345703 0.500000
vt 0.345703 0.500000
vt 0.345703 0.500000
vt 0.345703 0.500000
vt 0.345703 0.500000
vt 0.345703 0.500000
vt 0.345703 0.500000
vt 0.345703 0.500000
vt 0.345703 0.500000
vt 0.345703 0.500000
vt 0.345703 0.500000
vt 0.345703 0.500000
vt 0.345703 0.500000
vt 0.345703 0.500000
vt 0.345703 0.500000
vt 0.345703 0.500000
vt 0.345703 0.500000
vt 0.345703 0.500000
vt 0.345703 0.500000
vt 0.345703 0.500000
vt 0.345703 0.500000
vt 0.345703 0.500000
vt 0.345703 0.500000
vt 0.345703 0.500000
vt 0.345703 0.500000
vn -1.0000 0.0000 0.0000
vn 1.0000 0.0000 0.0000
vn -0.0000 -0.0000 1.0000
vn -0.0000 0.0000 -1.0000
vn 0.0000 -1.0000 0.0000
vn 0.0000 1.0000 0.0000
usemtl palette
s 1
f 1/1/1 2/2/1 3/3/1
f 4/4/1 2/2/1 1/1/1
f 5/5/1 6/6/1 7/7/1
f 8/8/1 6/6/1 5/5/1
f 9/9/1 10/10/1 11/11/1
f 12/12/1 10/10/1 9/9/1
f 13/13/2 14/14/2 15/15/2
f 15/15/2 14/14/2 16/16/2
f 17/17/2 18/18/2 19/19/2
f 19/19/2 18/18/2 20/20/2
f 21/21/2 22/22/2 23/23/2
f 23/23/2 22/22/2 24/24/2
f 25/25/3 26/26/3 27/27/3
f 28/28/3 26/26/3 25/25/3
f 29/29/3 25/25/3 27/27/3
f 30/30/3 25/25/3 29/29/3
f 31/31/3 28/32/3 25/33/3
f 32/34/3 26/26/3 28/28/3
f 32/35/3 28/32/3 31/31/3
f 33/36/3 31/31/3 25/33/3
f 33/37/3 25/25/3 30/30/3
f 34/38/3 32/34/3 31/39/3
f 34/40/3 31/31/3 33/36/3
f 35/41/3 26/26/3 32/34/3
f 35/41/3 32/34/3 34/38/3
f 36/42/3 29/29/3 27/27/3
f 36/43/3 30/44/3 29/45/3
f 37/46/3 34/38/3 33/37/3
f 37/47/3 30/44/3 36/43/3
f 37/46/3 33/37/3 30/30/3
f 38/48/3 34/38/3 37/46/3
f 39/49/3 35/50/3 34/40/3
f 39/51/3 34/38/3 38/48/3
f 40/52/3 26/26/3 35/41/3
f 40/53/3 35/50/3 39/49/3
f 41/54/3 36/42/3 27/27/3
f 41/54/3 38/48/3 37/46/3
f 41/54/3 37/46/3 36/42/3
f 42/55/3 38/48/3 41/54/3
f 43/56/3 38/48/3 42/55/3
f 44/57/3 39/49/3 38/58/3
f 44/59/3 38/48/3 43/56/3
f 45/60/3 40/52/3 39/51/3
f 45/61/3 39/49/3 44/57/3
f 46/62/3 26/26/3 40/52/3
f 46/62/3 40/52/3 45/60/3
f 47/63/3 41/54/3 48/64/3
f 47/63/3 42/55/3 41/54/3
f 49/65/3 42/55/3 47/63/3
f 50/66/3 43/67/3 42/68/3
f 50/69/3 42/55/3 49/65/3
f 51/70/3 44/59/3 43/56/3
f 51/71/3 43/67/3 50/66/3
f 52/72/3 45/73/3 44/74/3
f 52/75/3 44/59/3 51/70/3
f 53/76/3 54/77/3 46/62/3
f 53/78/3 45/73/3 52/72/3
f 53/76/3 46/62/3 45/60/3
f 55/79/3 54/77/3 53/76/3
f 56/80/3 54/77/3 55/79/3
f 57/81/3 51/70/3 50/69/3
f 57/81/3 50/69/3 49/65/3
f 57/81/3 52/75/3 51/70/3
f 58/82/3 52/75/3 57/81/3
f 59/83/3 53/84/3 52/85/3
f 59/86/3 52/75/3 58/82/3
f 60/87/3 55/79/3 53/76/3
f 60/88/3 53/84/3 59/83/3
f 61/89/3 55/79/3 60/87/3
f 62/90/3 59/86/3 58/82/3
f 62/90/3 60/87/3 59/86/3
f 63/91/3 61/92/3 60/88/3
f 63/93/3 60/87/3 62/90/3
f 64/94/3 55/79/3 61/89/3
f 64/95/3 61/92/3 63/91/3
f 65/96/3 58/97/3 57/98/3
f 65/99/3 57/81/3 49/65/3
f 66/100/3 62/90/3 58/82/3
f 66/101/3 58/97/3 65/96/3
f 67/102/3 63/91/3 62/103/3
f 67/104/3 64/94/3 63/93/3
f 68/105/3 55/79/3 64/94/3
f 68/105/3 64/94/3 67/104/3
f 69/106/3 62/90/3 66/100/3
f 69/107/3 67/102/3 62/103/3
f 69/107/3 68/108/3 67/102/3
f 69/106/3 66/100/3 65/99/3
f 70/109/3 55/79/3 68/105/3
f 70/110/3 68/108/3 69/107/3
f 71/111/3 69/106/3 65/99/3
f 71/111/3 65/99/3 49/65/3
f 71/111/3 70/109/3 69/106/3
f 72/112/3 55/79/3 70/109/3
f 72/112/3 70/109/3 71/111/3
f 73/113/4 74/114/4 75/115/4
f 75/115/4 74/114/4 76/116/4
f 73/113/4 75/115/4 77/117/4
f 77/117/4 75/115/4 78/118/4
f 75/119/4 76/120/4 79/121/4
f 76/116/4 74/114/4 80/122/4
f 79/121/4 76/120/4 80/123/4
f 75/119/4 79/121/4 81/124/4
f 78/118/4 75/115/4 81/125/4
f 79/126/4 80/122/4 82/127/4
f 81/124/4 79/121/4 82/128/4
f 80/122/4 74/114/4 83/129/4
f 82/127/4 80/122/4 83/129/4
f 73/113/4 77/117/4 84/130/4
f 77/131/4 78/132/4 84/133/4
f 81/125/4 82/127/4 85/134/4
f 84/133/4 78/132/4 85/135/4
f 78/118/4 81/125/4 85/134/4
f 85/134/4 82/127/4 86/136/4
f 82/128/4 83/137/4 87/138/4
f 86/136/4 82/127/4 87/139/4
f 83/129/4 74/114/4 88/140/4
f 87/138/4 83/137/4 88/141/4
f 73/113/4 84/130/4 89/142/4
f 85/134/4 86/136/4 89/142/4
f 84/130/4 85/134/4 89/142/4
f 89/142/4 86/136/4 90/143/4
f 90/143/4 86/136/4 91/144/4
f 86/145/4 87/138/4 92/146/4
f 91/144/4 86/136/4 92/147/4
f 87/139/4 88/140/4 93/148/4
f 92/146/4 87/138/4 93/149/4
f 88/140/4 74/114/4 94/150/4
f 93/148/4 88/140/4 94/150/4
f 95/151/4 89/142/4 96/152/4
f 89/142/4 90/143/4 96/152/4
f 96/152/4 90/143/4 97/153/4
f 90/154/4 91/155/4 98/156/4
f 97/153/4 90/143/4 98/157/4
f 91/144/4 92/147/4 99/158/4
f 98/156/4 91/155/4 99/159/4
f 92/160/4 93/161/4 100/162/4
f 99/158/4 92/147/4 100/163/4
f 94/150/4 101/164/4 102/165/4
f 100/162/4 93/161/4 102/166/4
f 93/148/4 94/150/4 102/165/4
f 102/165/4 101/164/4 103/167/4
f 103/167/4 101/164/4 104/168/4
f 98/157/4 99/158/4 105/169/4
f 97/153/4 98/157/4 105/169/4
f 99/158/4 100/163/4 105/169/4
f 105/169/4 100/163/4 106/170/4
f 100/171/4 102/172/4 107/173/4
f 106/170/4 100/163/4 107/174/4
f 102/165/4 103/167/4 108/175/4
f 107/173/4 102/172/4 108/176/4
f 108/175/4 103/167/4 109/177/4
f 106/170/4 107/174/4 110/178/4
f 107/174/4 108/175/4 110/178/4
f 108/176/4 109/179/4 111/180/4
f 110/178/4 108/175/4 111/181/4
f 109/177/4 103/167/4 112/182/4
f 111/180/4 109/179/4 112/183/4
f 105/184/4 106/185/4 113/186/4
f 97/153/4 105/169/4 113/187/4
f 106/170/4 110/178/4 114/188/4
f 113/186/4 106/185/4 114/189/4
f 110/190/4 111/180/4 115/191/4
f 111/181/4 112/182/4 115/192/4
f 112/182/4 103/167/4 116/193/4
f 115/192/4 112/182/4 116/193/4
f 114/188/4 110/178/4 117/194/4
f 110/190/4 115/191/4 117/195/4
f 115/191/4 116/196/4 117/195/4
f 113/187/4 114/188/4 117/194/4
f 116/193/4 103/167/4 118/197/4
f 117/195/4 116/196/4 118/198/4
f 113/187/4 117/194/4 119/199/4
f 97/153/4 113/187/4 119/199/4
f 117/194/4 118/197/4 119/199/4
f 118/197/4 103/167/4 120/200/4
f 119/199/4 118/197/4 120/200/4
f 121/201/5 122/202/5 123/203/5
f 124/204/5 122/202/5 121/201/5
f 125/205/5 126/206/5 127/207/5
f 128/208/5 126/206/5 125/205/5
f 129/209/5 130/210/5 131/211/5
f 132/212/5 130/210/5 129/209/5
f 133/213/6 134/214/6 135/215/6
f 135/215/6 134/214/6 136/216/6
f 137/217/6 138/218/6 139/219/6
f 139/219/6 138/218/6 140/220/6
f 141/221/6 142/222/6 143/223/6
f 143/223/6 142/222/6 144/224/6
