# Blender v3.0.1 OBJ File: ''
# www.blender.org
mtllib PikachuBody.mtl
o pikachunew.001
v -16.888889 -6.011113 6.755555
v -16.888889 -18.011108 -20.244448
v -16.888889 -18.011116 17.755552
v -16.888889 -6.011112 -1.244445
v -16.888889 -6.011111 -7.244445
v -16.888889 -6.011110 -15.244445
v -16.888889 5.988885 17.755558
v -16.888889 5.988887 6.755557
v -16.888889 5.988888 -1.244443
v -16.888889 5.988889 -7.244443
v -16.888889 5.988890 -15.244443
v -16.888889 5.988891 -20.244442
v -13.888889 16.988886 15.755559
v -13.888889 5.988886 12.755557
v -13.888889 5.988885 15.755557
v -13.888889 16.988886 12.755559
v -13.888889 21.988886 15.755560
v -13.888889 21.988886 12.755560
v -5.888889 -10.011115 14.755554
v -5.888889 -12.011114 10.755554
v -5.888889 -12.011115 14.755554
v -5.888889 -10.011114 10.755554
v -5.888889 -7.011108 -22.244446
v -5.888889 -8.011108 -22.244446
v -5.888889 -8.011109 -20.244446
v -5.888889 0.988891 -20.244444
v -5.888889 -7.011108 -23.244446
v -5.888889 0.988892 -23.244444
v -4.888889 -4.011115 18.755556
v -4.888889 -6.011115 17.755554
v -4.888889 -6.011115 18.755554
v -4.888889 -4.011115 17.755556
v -1.888889 -7.011115 17.755554
v -1.888889 -8.011115 16.755554
v -1.888889 -8.011115 17.755554
v -1.888889 -7.011115 16.755554
v -1.888889 -8.011114 10.755555
v -1.888889 -7.011114 10.755555
v 0.111111 0.988892 -23.244444
v 0.111111 -7.011108 -24.244446
v 0.111111 -7.011108 -23.244446
v 0.111111 0.988892 -24.244444
v 0.111111 7.988892 -23.244442
v 0.111111 0.988892 -25.244444
v 0.111111 7.988892 -25.244442
v 0.111111 14.988892 -23.244442
v 0.111111 14.988892 -25.244442
v 1.111111 -8.011115 17.755554
v 1.111111 -12.011115 16.755554
v 1.111111 -12.011115 17.755554
v 1.111111 -8.011115 16.755554
v 1.111111 -12.011114 10.755554
v 1.111111 -8.011114 10.755555
v 1.111111 16.988886 15.755559
v 1.111111 5.988886 12.755557
v 1.111111 5.988885 15.755557
v 1.111111 16.988886 12.755559
v 1.111111 21.988886 15.755560
v 1.111111 21.988886 12.755560
v 7.111111 14.988892 -25.244442
v 7.111111 7.988892 -26.244442
v 7.111111 7.988892 -25.244442
v 7.111111 14.988892 -26.244442
v 7.111111 25.988892 -25.244440
v 7.111111 14.988893 -27.244442
v 7.111111 25.988892 -27.244440
v 15.111111 25.988892 -27.244440
v 15.111111 14.988893 -28.244442
v 15.111111 14.988893 -27.244442
v 15.111111 25.988892 -28.244440
v -6.888889 -12.011115 17.755554
v -6.888889 -12.011115 16.755554
v -6.888889 -8.011115 17.755554
v -6.888889 -12.011114 10.755554
v -6.888889 -8.011115 16.755554
v -6.888889 -8.011114 10.755555
v -6.888889 5.988885 15.755557
v -6.888889 5.988886 12.755557
v -6.888889 16.988886 15.755559
v -6.888889 16.988886 12.755559
v -6.888889 21.988886 15.755560
v -6.888889 21.988886 12.755560
v -3.888889 -8.011115 17.755554
v -3.888889 -8.011115 16.755554
v -3.888889 -7.011115 17.755554
v -3.888889 -8.011114 10.755555
v -3.888889 -7.011115 16.755554
v -3.888889 -7.011114 10.755555
v -0.888889 -6.011115 18.755554
v -0.888889 -6.011115 17.755554
v -0.888889 -4.011115 18.755556
v -0.888889 -4.011115 17.755556
v 0.111111 -12.011115 14.755554
v 0.111111 -12.011114 10.755554
v 0.111111 -10.011115 14.755554
v 0.111111 -10.011114 10.755554
v 0.111111 -8.011109 -20.244446
v 0.111111 -8.011108 -22.244446
v 0.111111 -7.011108 -22.244446
v 0.111111 0.988891 -20.244444
v 0.111111 0.988891 -22.244444
v 7.111111 -7.011108 -22.244446
v 7.111111 -7.011108 -24.244446
v 7.111111 0.988891 -22.244444
v 7.111111 0.988892 -23.244444
v 7.111111 0.988892 -24.244444
v 7.111111 0.988892 -25.244444
v 7.111111 7.988892 -23.244442
v 7.111111 7.988892 -24.244442
v 7.111111 14.988892 -23.244442
v 7.111111 14.988892 -24.244442
v 8.111111 5.988885 15.755557
v 8.111111 5.988886 12.755557
v 8.111111 16.988886 15.755559
v 8.111111 16.988886 12.755559
v 8.111111 21.988886 15.755560
v 8.111111 21.988886 12.755560
v 11.111111 -18.011116 17.755552
v 11.111111 -18.011108 -20.244448
v 11.111111 -6.011113 6.755555
v 11.111111 -6.011112 -1.244445
v 11.111111 -6.011111 -7.244445
v 11.111111 -6.011110 -15.244445
v 11.111111 5.988885 17.755558
v 11.111111 5.988887 6.755557
v 11.111111 5.988888 -1.244443
v 11.111111 5.988889 -7.244443
v 11.111111 5.988890 -15.244443
v 11.111111 5.988891 -20.244442
v 15.111111 7.988892 -24.244442
v 15.111111 7.988892 -26.244442
v 15.111111 14.988892 -24.244442
v 15.111111 14.988892 -25.244442
v 15.111111 14.988892 -26.244442
v 15.111111 25.988892 -25.244440
v 15.111111 25.988892 -26.244440
v 29.111111 14.988892 -26.244442
v 29.111111 14.988893 -28.244442
v 29.111111 25.988892 -26.244440
v 29.111111 25.988892 -28.244440
v -14.888889 -12.011115 17.755554
v -14.888889 -6.011115 17.755554
v -10.888889 -4.011115 17.755556
v -10.888889 -0.011115 17.755556
v -9.888889 -2.011115 17.755556
v -9.888889 -0.011115 17.755556
v -8.888889 -12.011115 17.755554
v -8.888889 -6.011115 17.755554
v -7.888889 -2.011115 17.755556
v -7.888889 -0.011115 17.755556
v -6.888889 -4.011115 17.755556
v -6.888889 -0.011115 17.755556
v 1.111111 -4.011115 17.755556
v 1.111111 -0.011115 17.755556
v 2.111111 -2.011115 17.755556
v 2.111111 -0.011115 17.755556
v 3.111111 -12.011115 17.755554
v 3.111111 -6.011115 17.755554
v 4.111111 -2.011115 17.755556
v 4.111111 -0.011115 17.755556
v 5.111111 -4.011115 17.755556
v 5.111111 -0.011115 17.755556
v 9.111111 -12.011115 17.755554
v 9.111111 -6.011115 17.755554
v -15.888889 -18.011114 12.755553
v -7.888889 -18.011114 12.755553
v 2.111111 -18.011114 12.755553
v 10.111111 -18.011114 12.755553
v -15.888889 -18.011114 6.755553
v -7.888889 -18.011114 6.755553
v 2.111111 -18.011114 6.755553
v 10.111111 -18.011114 6.755553
v -15.888889 -18.011110 -10.244447
v -6.888889 -18.011110 -10.244447
v 1.111111 -18.011110 -10.244447
v 10.111111 -18.011110 -10.244447
v -15.888889 -18.011110 -16.244448
v -6.888889 -18.011110 -16.244448
v 1.111111 -18.011110 -16.244448
v 10.111111 -18.011110 -16.244448
vt 0.029300 0.500000
vt 0.029300 0.500000
vt 0.029300 0.500000
vt 0.029300 0.500000
vt 0.029300 0.500000
vt 0.029300 0.500000
vt 0.029300 0.500000
vt 0.013700 0.500000
vt 0.013700 0.500000
vt 0.013700 0.500000
vt 0.029300 0.500000
vt 0.029300 0.500000
vt 0.013700 0.500000
vt 0.013700 0.500000
vt 0.013700 0.500000
vt 0.013700 0.500000
vt 0.029300 0.500000
vt 0.029300 0.500000
vt 0.013700 0.500000
vt 0.029300 0.500000
vt 0.029300 0.500000
vt 0.029300 0.500000
vt 0.029300 0.500000
vt 0.029300 0.500000
vt 0.009800 0.500000
vt 0.009800 0.500000
vt 0.009800 0.500000
vt 0.009800 0.500000
vt 0.025400 0.500000
vt 0.025400 0.500000
vt 0.025400 0.500000
vt 0.025400 0.500000
vt 0.013700 0.500000
vt 0.013700 0.500000
vt 0.013700 0.500000
vt 0.013700 0.500000
vt 0.013700 0.500000
vt 0.013700 0.500000
vt 0.005900 0.500000
vt 0.005900 0.500000
vt 0.005900 0.500000
vt 0.005900 0.500000
vt 0.029300 0.500000
vt 0.029300 0.500000
vt 0.029300 0.500000
vt 0.021500 0.500000
vt 0.021500 0.500000
vt 0.021500 0.500000
vt 0.029300 0.500000
vt 0.021500 0.500000
vt 0.013700 0.500000
vt 0.013700 0.500000
vt 0.013700 0.500000
vt 0.013700 0.500000
vt 0.013700 0.500000
vt 0.013700 0.500000
vt 0.013700 0.500000
vt 0.029300 0.500000
vt 0.029300 0.500000
vt 0.029300 0.500000
vt 0.029300 0.500000
vt 0.029300 0.500000
vt 0.029300 0.500000
vt 0.029300 0.500000
vt 0.021500 0.500000
vt 0.021500 0.500000
vt 0.021500 0.500000
vt 0.029300 0.500000
vt 0.021500 0.500000
vt 0.029300 0.500000
vt 0.029300 0.500000
vt 0.029300 0.500000
vt 0.029300 0.500000
vt 0.009800 0.500000
vt 0.009800 0.500000
vt 0.009800 0.500000
vt 0.009800 0.500000
vt 0.029300 0.500000
vt 0.029300 0.500000
vt 0.029300 0.500000
vt 0.029300 0.500000
vt 0.029300 0.500000
vt 0.029300 0.500000
vt 0.029300 0.500000
vt 0.029300 0.500000
vt 0.029300 0.500000
vt 0.029300 0.500000
vt 0.029300 0.500000
vt 0.029300 0.500000
vt 0.029300 0.500000
vt 0.029300 0.500000
vt 0.021500 0.500000
vt 0.021500 0.500000
vt 0.021500 0.500000
vt 0.029300 0.500000
vt 0.021500 0.500000
vt 0.029300 0.500000
vt 0.029300 0.500000
vt 0.029300 0.500000
vt 0.029300 0.500000
vt 0.009800 0.500000
vt 0.009800 0.500000
vt 0.009800 0.500000
vt 0.009800 0.500000
vt 0.029300 0.500000
vt 0.029300 0.500000
vt 0.029300 0.500000
vt 0.021500 0.500000
vt 0.021500 0.500000
vt 0.021500 0.500000
vt 0.029300 0.500000
vt 0.021500 0.500000
vt 0.005900 0.500000
vt 0.005900 0.500000
vt 0.005900 0.500000
vt 0.005900 0.500000
vt 0.025400 0.500000
vt 0.025400 0.500000
vt 0.025400 0.500000
vt 0.025400 0.500000
vt 0.013700 0.500000
vt 0.013700 0.500000
vt 0.013700 0.500000
vt 0.013700 0.500000
vt 0.013700 0.500000
vt 0.013700 0.500000
vt 0.013700 0.500000
vt 0.013700 0.500000
vt 0.013700 0.500000
vt 0.013700 0.500000
vt 0.013700 0.500000
vt 0.013700 0.500000
vt 0.013700 0.500000
vt 0.013700 0.500000
vt 0.029300 0.500000
vt 0.029300 0.500000
vt 0.029300 0.500000
vt 0.029300 0.500000
vt 0.029300 0.500000
vt 0.029300 0.500000
vt 0.029300 0.500000
vt 0.029300 0.500000
vt 0.009800 0.500000
vt 0.009800 0.500000
vt 0.009800 0.500000
vt 0.009800 0.500000
vt 0.029300 0.500000
vt 0.029300 0.500000
vt 0.029300 0.500000
vt 0.029300 0.500000
vt 0.029300 0.500000
vt 0.029300 0.500000
vt 0.029300 0.500000
vt 0.013700 0.500000
vt 0.013700 0.500000
vt 0.013700 0.500000
vt 0.029300 0.500000
vt 0.029300 0.500000
vt 0.013700 0.500000
vt 0.013700 0.500000
vt 0.013700 0.500000
vt 0.013700 0.500000
vt 0.029300 0.500000
vt 0.029300 0.500000
vt 0.013700 0.500000
vt 0.029300 0.500000
vt 0.029300 0.500000
vt 0.029300 0.500000
vt 0.029300 0.500000
vt 0.029300 0.500000
vt 0.029300 0.500000
vt 0.029300 0.500000
vt 0.029300 0.500000
vt 0.029300 0.500000
vt 0.029300 0.500000
vt 0.029300 0.500000
vt 0.029300 0.500000
vt 0.029300 0.500000
vt 0.029300 0.500000
vt 0.029300 0.500000
vt 0.029300 0.500000
vt 0.002000 0.500000
vt 0.002000 0.500000
vt 0.002000 0.500000
vt 0.029300 0.500000
vt 0.002000 0.500000
vt 0.029300 0.500000
vt 0.017600 0.500000
vt 0.017600 0.500000
vt 0.017600 0.500000
vt 0.029300 0.500000
vt 0.017600 0.500000
vt 0.033200 0.500000
vt 0.033200 0.500000
vt 0.033200 0.500000
vt 0.002000 0.500000
vt 0.029300 0.500000
vt 0.033200 0.500000
vt 0.002000 0.500000
vt 0.029300 0.500000
vt 0.002000 0.500000
vt 0.029300 0.500000
vt 0.002000 0.500000
vt 0.029300 0.500000
vt 0.029300 0.500000
vt 0.029300 0.500000
vt 0.029300 0.500000
vt 0.029300 0.500000
vt 0.029300 0.500000
vt 0.002000 0.500000
vt 0.002000 0.500000
vt 0.002000 0.500000
vt 0.029300 0.500000
vt 0.002000 0.500000
vt 0.029300 0.500000
vt 0.029300 0.500000
vt 0.033200 0.500000
vt 0.033200 0.500000
vt 0.033200 0.500000
vt 0.002000 0.500000
vt 0.029300 0.500000
vt 0.033200 0.500000
vt 0.002000 0.500000
vt 0.029300 0.500000
vt 0.002000 0.500000
vt 0.029300 0.500000
vt 0.002000 0.500000
vt 0.029300 0.500000
vt 0.017600 0.500000
vt 0.017600 0.500000
vt 0.017600 0.500000
vt 0.029300 0.500000
vt 0.017600 0.500000
vt 0.021500 0.500000
vt 0.021500 0.500000
vt 0.021500 0.500000
vt 0.021500 0.500000
vt 0.029300 0.500000
vt 0.029300 0.500000
vt 0.029300 0.500000
vt 0.029300 0.500000
vt 0.029300 0.500000
vt 0.029300 0.500000
vt 0.029300 0.500000
vt 0.029300 0.500000
vt 0.029300 0.500000
vt 0.029300 0.500000
vt 0.029300 0.500000
vt 0.029300 0.500000
vt 0.029300 0.500000
vt 0.029300 0.500000
vt 0.029300 0.500000
vt 0.029300 0.500000
vt 0.029300 0.500000
vt 0.029300 0.500000
vt 0.029300 0.500000
vt 0.029300 0.500000
vt 0.021500 0.500000
vt 0.021500 0.500000
vn -1.0000 0.0000 0.0000
vn 1.0000 0.0000 0.0000
vn 0.0000 -0.0000 1.0000
vn 0.0000 0.0000 -1.0000
vn 0.0000 -1.0000 -0.0000
vn 0.0000 1.0000 0.0000
usemtl palette.001
s 1
f 1/1/1 2/2/1 3/3/1
f 4/4/1 2/2/1 1/1/1
f 5/5/1 2/2/1 4/4/1
f 6/6/1 2/2/1 5/5/1
f 7/7/1 1/1/1 3/3/1
f 8/8/1 4/9/1 1/10/1
f 8/11/1 1/1/1 7/7/1
f 9/12/1 5/5/1 4/4/1
f 9/13/1 4/9/1 8/8/1
f 10/14/1 6/15/1 5/16/1
f 10/17/1 5/5/1 9/12/1
f 11/18/1 2/2/1 6/6/1
f 11/19/1 6/15/1 10/14/1
f 12/20/1 2/2/1 11/18/1
f 13/21/1 14/22/1 15/23/1
f 16/24/1 14/22/1 13/21/1
f 17/25/1 16/26/1 13/27/1
f 18/28/1 16/26/1 17/25/1
f 19/29/1 20/30/1 21/31/1
f 22/32/1 20/30/1 19/29/1
f 23/33/1 24/34/1 25/35/1
f 26/36/1 23/33/1 25/35/1
f 26/36/1 27/37/1 23/33/1
f 28/38/1 27/37/1 26/36/1
f 29/39/1 30/40/1 31/41/1
f 32/42/1 30/40/1 29/39/1
f 33/43/1 34/44/1 35/45/1
f 36/46/1 37/47/1 34/48/1
f 36/49/1 34/44/1 33/43/1
f 38/50/1 37/47/1 36/46/1
f 39/51/1 40/52/1 41/53/1
f 42/54/1 40/52/1 39/51/1
f 43/55/1 42/54/1 39/51/1
f 43/55/1 44/56/1 42/54/1
f 45/57/1 44/56/1 43/55/1
f 46/58/1 45/59/1 43/60/1
f 47/61/1 45/59/1 46/58/1
f 48/62/1 49/63/1 50/64/1
f 51/65/1 52/66/1 49/67/1
f 51/68/1 49/63/1 48/62/1
f 53/69/1 52/66/1 51/65/1
f 54/70/1 55/71/1 56/72/1
f 57/73/1 55/71/1 54/70/1
f 58/74/1 57/75/1 54/76/1
f 59/77/1 57/75/1 58/74/1
f 60/78/1 61/79/1 62/80/1
f 63/81/1 61/79/1 60/78/1
f 64/82/1 63/81/1 60/78/1
f 64/82/1 65/83/1 63/81/1
f 66/84/1 65/83/1 64/82/1
f 67/85/1 68/86/1 69/87/1
f 70/88/1 68/86/1 67/85/1
f 71/89/2 72/90/2 73/91/2
f 72/92/2 74/93/2 75/94/2
f 73/91/2 72/90/2 75/95/2
f 75/94/2 74/93/2 76/96/2
f 77/97/2 78/98/2 79/99/2
f 79/99/2 78/98/2 80/100/2
f 79/101/2 80/102/2 81/103/2
f 81/103/2 80/102/2 82/104/2
f 83/105/2 84/106/2 85/107/2
f 84/108/2 86/109/2 87/110/2
f 85/107/2 84/106/2 87/111/2
f 87/110/2 86/109/2 88/112/2
f 89/113/2 90/114/2 91/115/2
f 91/115/2 90/114/2 92/116/2
f 93/117/2 94/118/2 95/119/2
f 95/119/2 94/118/2 96/120/2
f 97/121/2 98/122/2 99/123/2
f 97/121/2 99/123/2 100/124/2
f 100/124/2 99/123/2 101/125/2
f 102/126/2 103/127/2 104/128/2
f 104/128/2 103/127/2 105/129/2
f 105/129/2 103/127/2 106/130/2
f 106/130/2 107/131/2 108/132/2
f 105/129/2 106/130/2 108/132/2
f 108/132/2 107/131/2 109/133/2
f 109/133/2 107/131/2 62/134/2
f 108/135/2 109/136/2 110/137/2
f 110/137/2 109/136/2 111/138/2
f 112/139/2 113/140/2 114/141/2
f 114/141/2 113/140/2 115/142/2
f 114/143/2 115/144/2 116/145/2
f 116/145/2 115/144/2 117/146/2
f 118/147/2 119/148/2 120/149/2
f 120/149/2 119/148/2 121/150/2
f 121/150/2 119/148/2 122/151/2
f 122/151/2 119/148/2 123/152/2
f 118/147/2 120/149/2 124/153/2
f 120/154/2 121/155/2 125/156/2
f 124/153/2 120/149/2 125/157/2
f 121/150/2 122/151/2 126/158/2
f 125/156/2 121/155/2 126/159/2
f 122/160/2 123/161/2 127/162/2
f 126/158/2 122/151/2 127/163/2
f 123/152/2 119/148/2 128/164/2
f 127/162/2 123/161/2 128/165/2
f 128/164/2 119/148/2 129/166/2
f 130/167/2 131/168/2 132/169/2
f 132/169/2 131/168/2 133/170/2
f 133/170/2 131/168/2 134/171/2
f 133/170/2 134/171/2 135/172/2
f 135/172/2 134/171/2 136/173/2
f 137/174/2 138/175/2 139/176/2
f 139/176/2 138/175/2 140/177/2
f 89/113/3 29/39/3 31/41/3
f 91/115/3 29/39/3 89/113/3
f 141/178/3 7/7/3 3/3/3
f 142/179/3 7/7/3 141/178/3
f 143/180/3 7/7/3 142/179/3
f 144/181/3 7/7/3 143/180/3
f 145/182/3 144/183/3 143/184/3
f 146/185/3 7/7/3 144/181/3
f 146/186/3 144/183/3 145/182/3
f 147/187/3 141/178/3 3/3/3
f 147/188/3 142/189/3 141/190/3
f 148/191/3 143/180/3 142/179/3
f 148/192/3 142/189/3 147/188/3
f 149/193/3 146/194/3 145/195/3
f 149/196/3 145/182/3 143/184/3
f 150/197/3 7/7/3 146/185/3
f 150/198/3 146/194/3 149/193/3
f 71/89/3 147/187/3 3/3/3
f 71/89/3 148/191/3 147/187/3
f 73/91/3 148/191/3 71/89/3
f 151/199/3 149/196/3 143/184/3
f 151/200/3 148/191/3 73/91/3
f 151/200/3 143/180/3 148/191/3
f 151/199/3 150/201/3 149/196/3
f 152/202/3 7/7/3 150/197/3
f 152/203/3 150/201/3 151/199/3
f 30/204/3 151/200/3 73/91/3
f 30/204/3 152/202/3 151/200/3
f 32/205/3 152/202/3 30/204/3
f 83/105/3 30/204/3 73/91/3
f 85/107/3 30/204/3 83/105/3
f 33/43/3 30/204/3 85/107/3
f 90/206/3 30/204/3 33/43/3
f 90/206/3 33/43/3 35/45/3
f 92/207/3 152/202/3 32/205/3
f 50/64/3 71/89/3 3/3/3
f 48/62/3 92/207/3 90/206/3
f 48/62/3 90/206/3 35/45/3
f 153/208/3 152/202/3 92/207/3
f 153/208/3 92/207/3 48/62/3
f 154/209/3 7/7/3 152/202/3
f 154/209/3 152/202/3 153/208/3
f 155/210/3 154/211/3 153/212/3
f 156/213/3 7/7/3 154/209/3
f 156/214/3 154/211/3 155/210/3
f 157/215/3 153/208/3 48/62/3
f 157/215/3 50/64/3 3/3/3
f 157/215/3 48/62/3 50/64/3
f 158/216/3 153/208/3 157/215/3
f 159/217/3 156/218/3 155/219/3
f 159/220/3 155/210/3 153/212/3
f 160/221/3 7/7/3 156/213/3
f 160/222/3 156/218/3 159/217/3
f 161/223/3 159/220/3 153/212/3
f 161/224/3 153/208/3 158/216/3
f 161/223/3 160/225/3 159/220/3
f 162/226/3 7/7/3 160/221/3
f 162/227/3 160/225/3 161/223/3
f 163/228/3 157/215/3 3/3/3
f 163/229/3 158/230/3 157/231/3
f 164/232/3 161/224/3 158/216/3
f 164/233/3 158/230/3 163/229/3
f 164/232/3 162/226/3 161/224/3
f 118/147/3 163/228/3 3/3/3
f 118/147/3 164/232/3 163/228/3
f 124/153/3 162/226/3 164/232/3
f 124/153/3 164/232/3 118/147/3
f 124/153/3 7/7/3 162/226/3
f 77/97/3 13/21/3 15/23/3
f 79/101/3 17/25/3 13/27/3
f 79/99/3 13/21/3 77/97/3
f 81/103/3 17/25/3 79/101/3
f 112/139/3 54/70/3 56/72/3
f 114/143/3 58/74/3 54/76/3
f 114/141/3 54/70/3 112/139/3
f 116/145/3 58/74/3 114/143/3
f 93/117/3 19/29/3 21/31/3
f 95/119/3 19/29/3 93/117/3
f 20/234/3 76/96/3 74/93/3
f 22/235/3 76/96/3 20/234/3
f 86/109/3 76/96/3 22/235/3
f 37/47/3 86/109/3 22/235/3
f 37/47/3 88/112/3 86/109/3
f 38/50/3 88/112/3 37/47/3
f 96/236/3 37/47/3 22/235/3
f 52/66/3 96/236/3 94/237/3
f 53/69/3 37/47/3 96/236/3
f 53/69/3 96/236/3 52/66/3
f 102/126/3 101/125/3 99/123/3
f 104/128/3 101/125/3 102/126/3
f 105/129/3 43/55/3 39/51/3
f 108/135/3 46/58/3 43/60/3
f 108/132/3 43/55/3 105/129/3
f 110/137/3 46/58/3 108/135/3
f 130/167/3 111/138/3 109/136/3
f 132/169/3 111/138/3 130/167/3
f 133/170/3 64/82/3 60/78/3
f 135/172/3 64/82/3 133/170/3
f 137/174/3 136/173/3 134/171/3
f 139/176/3 136/173/3 137/174/3
f 14/22/4 16/24/4 78/98/4
f 16/26/4 18/28/4 80/102/4
f 78/98/4 16/24/4 80/100/4
f 80/102/4 18/28/4 82/104/4
f 55/71/4 57/73/4 113/140/4
f 57/75/4 59/77/4 115/144/4
f 113/140/4 57/73/4 115/142/4
f 115/144/4 59/77/4 117/146/4
f 2/2/4 12/20/4 25/238/4
f 25/238/4 12/20/4 26/239/4
f 2/2/4 25/238/4 97/240/4
f 26/239/4 12/20/4 100/241/4
f 2/2/4 97/240/4 119/148/4
f 97/240/4 100/241/4 119/148/4
f 100/241/4 12/20/4 129/166/4
f 119/148/4 100/241/4 129/166/4
f 24/34/4 23/33/4 98/122/4
f 98/122/4 23/33/4 99/123/4
f 27/37/4 28/38/4 41/53/4
f 41/53/4 28/38/4 39/51/4
f 40/52/4 42/54/4 103/127/4
f 103/127/4 42/54/4 106/130/4
f 44/56/4 45/57/4 107/131/4
f 45/59/4 47/61/4 62/80/4
f 107/131/4 45/57/4 62/134/4
f 62/80/4 47/61/4 60/78/4
f 61/79/4 63/81/4 131/168/4
f 131/168/4 63/81/4 134/171/4
f 65/83/4 66/84/4 69/87/4
f 69/87/4 66/84/4 67/85/4
f 68/86/4 70/88/4 138/175/4
f 138/175/4 70/88/4 140/177/4
f 165/242/5 118/147/5 3/3/5
f 166/243/5 118/147/5 165/242/5
f 167/244/5 118/147/5 166/243/5
f 168/245/5 118/147/5 167/244/5
f 169/246/5 165/242/5 3/3/5
f 170/247/5 167/244/5 166/243/5
f 171/248/5 167/244/5 170/247/5
f 172/249/5 118/147/5 168/245/5
f 173/250/5 171/248/5 170/247/5
f 173/250/5 172/249/5 171/248/5
f 173/250/5 169/246/5 3/3/5
f 173/250/5 170/247/5 169/246/5
f 174/251/5 172/249/5 173/250/5
f 175/252/5 172/249/5 174/251/5
f 176/253/5 118/147/5 172/249/5
f 176/253/5 172/249/5 175/252/5
f 177/254/5 173/250/5 3/3/5
f 178/255/5 175/252/5 174/251/5
f 179/256/5 175/252/5 178/255/5
f 180/257/5 118/147/5 176/253/5
f 2/2/5 177/254/5 3/3/5
f 2/2/5 180/257/5 179/256/5
f 2/2/5 179/256/5 178/255/5
f 2/2/5 178/255/5 177/254/5
f 119/148/5 118/147/5 180/257/5
f 119/148/5 180/257/5 2/2/5
f 75/95/5 83/105/5 73/91/5
f 84/106/5 83/105/5 75/95/5
f 34/44/5 48/62/5 35/45/5
f 51/68/5 48/62/5 34/44/5
f 76/96/5 84/108/5 75/94/5
f 86/109/5 84/108/5 76/96/5
f 37/47/5 51/65/5 34/48/5
f 53/69/5 51/65/5 37/47/5
f 24/34/5 97/121/5 25/35/5
f 98/122/5 97/121/5 24/34/5
f 87/111/5 33/43/5 85/107/5
f 36/49/5 33/43/5 87/111/5
f 88/112/5 36/46/5 87/110/5
f 38/50/5 36/46/5 88/112/5
f 27/37/5 99/123/5 23/33/5
f 27/37/5 102/126/5 99/123/5
f 41/53/5 102/126/5 27/37/5
f 40/52/5 102/126/5 41/53/5
f 103/127/5 102/126/5 40/52/5
f 30/40/5 89/113/5 31/41/5
f 90/114/5 89/113/5 30/40/5
f 44/56/5 106/130/5 42/54/5
f 107/131/5 106/130/5 44/56/5
f 62/80/5 130/167/5 109/136/5
f 61/79/5 130/167/5 62/80/5
f 131/168/5 130/167/5 61/79/5
f 65/83/5 134/171/5 63/81/5
f 65/83/5 137/174/5 134/171/5
f 69/87/5 137/174/5 65/83/5
f 68/86/5 137/174/5 69/87/5
f 138/175/5 137/174/5 68/86/5
f 71/89/6 50/64/6 72/90/6
f 72/90/6 50/64/6 49/63/6
f 72/92/6 49/67/6 21/258/6
f 21/258/6 49/67/6 93/259/6
f 72/92/6 21/258/6 74/93/6
f 74/93/6 21/258/6 20/234/6
f 93/259/6 49/67/6 94/237/6
f 94/237/6 49/67/6 52/66/6
f 19/29/6 95/119/6 22/32/6
f 22/32/6 95/119/6 96/120/6
f 29/39/6 91/115/6 32/42/6
f 32/42/6 91/115/6 92/116/6
f 26/36/6 100/124/6 101/125/6
f 26/36/6 101/125/6 28/38/6
f 101/125/6 104/128/6 28/38/6
f 28/38/6 104/128/6 39/51/6
f 39/51/6 104/128/6 105/129/6
f 7/7/6 124/153/6 15/23/6
f 15/23/6 124/153/6 77/97/6
f 77/97/6 124/153/6 56/72/6
f 56/72/6 124/153/6 112/139/6
f 7/7/6 15/23/6 14/22/6
f 77/97/6 56/72/6 78/98/6
f 78/98/6 56/72/6 55/71/6
f 112/139/6 124/153/6 113/140/6
f 78/98/6 55/71/6 8/11/6
f 55/71/6 113/140/6 8/11/6
f 7/7/6 14/22/6 8/11/6
f 14/22/6 78/98/6 8/11/6
f 113/140/6 124/153/6 125/157/6
f 8/11/6 113/140/6 125/157/6
f 8/8/6 125/156/6 9/13/6
f 9/13/6 125/156/6 126/159/6
f 9/12/6 126/158/6 10/17/6
f 10/17/6 126/158/6 127/163/6
f 10/14/6 127/162/6 11/19/6
f 11/19/6 127/162/6 128/165/6
f 11/18/6 128/164/6 12/20/6
f 12/20/6 128/164/6 129/166/6
f 46/58/6 110/137/6 111/138/6
f 46/58/6 111/138/6 47/61/6
f 111/138/6 132/169/6 47/61/6
f 47/61/6 132/169/6 60/78/6
f 60/78/6 132/169/6 133/170/6
f 17/25/6 81/103/6 18/28/6
f 18/28/6 81/103/6 82/104/6
f 58/74/6 116/145/6 59/77/6
f 59/77/6 116/145/6 117/146/6
f 64/82/6 135/172/6 136/173/6
f 64/82/6 136/173/6 66/84/6
f 136/173/6 139/176/6 66/84/6
f 66/84/6 139/176/6 67/85/6
f 67/85/6 139/176/6 70/88/6
f 70/88/6 139/176/6 140/177/6
